<svg xmlns="http://www.w3.org/2000/svg" viewBox="0 0 50 50"><path d="M40.4 21.5c-.6-.8-1.4-1.4-2.3-1.9-.9-.5-2-.7-3.3-.7-1.1 0-2.1.2-3.1.6-.9.4-1.8.9-2.4 1.6-.7.7-1.2 1.5-1.6 2.5-.3.9-.5 2-.5 3.1s.2 2.2.5 3.1c.4.9.9 1.8 1.5 2.5.7.7 1.5 1.2 2.4 1.6.9.3 2 .5 3.1.5 1.7 0 3.1-.4 4.3-1.1 1.2-.7 2.1-2 2.6-3.8H38c-.2.5-.5.9-1.1 1.3-.5.4-1.3.6-2.1.6-1.1 0-2-.3-2.6-.9-.6-.6-1-1.7-1-2.8H42c.1-1.1 0-2.2-.3-3.2-.3-1.3-.7-2.2-1.3-3zM31.3 25c.1-.3.1-.6.2-.9.1-.4.3-.7.5-1 .3-.3.6-.6 1-.8.4-.3.9-.4 1.6-.4 1 0 1.8.3 2.3.8.5.6.8 1.3.9 2.4h-6.5zm-6.3-.3c-.6-.9-1.5-1.5-2.8-1.9.9-.4 1.6-1 2.1-1.7.4-.7.7-1.5.7-2.6 0-.9-.2-1.8-.5-2.4-.4-.7-.8-1.1-1.4-1.6-.5-.4-1.3-.7-2-.8-.8-.2-1.6-.3-2.6-.3H8.9v20.4h9.9c.9 0 1.8-.1 2.6-.4.8-.2 1.6-.5 2.3-1 .6-.5 1.2-1.1 1.6-1.8.4-.7.6-1.6.5-2.7.1-1.2-.2-2.3-.8-3.2zm-11.6-7.6h4.2c.4 0 .8.1 1.1.1.4.1.7.2 1 .4.3.2.5.4.7.7.2.3.3.6.3 1.1 0 .8-.2 1.4-.7 1.8-.5.4-1.2.5-2 .6h-4.5v-4.7zm7.8 12c-.2.3-.4.6-.7.8-.3.2-.6.4-1 .5-.4.1-.8.2-1.3.2h-4.8V25h4.9c1 0 1.8.2 2.4.6.5.5.8 1.2.8 2.2 0 .5-.1.9-.3 1.3zm9.3-14.2h8.2v2h-8.2z"/></svg>