<svg xmlns="http://www.w3.org/2000/svg" viewBox="0 0 50 50"><path d="M40.9 29c-.3 1.1-.4 1.5-.5 1.7l-.2.3c-1.4 3.1-4.3 5.1-10.5 5.7h-8.8c-5.8-.6-9.1-2.6-10.7-5.7 0 0-.1-.1-.1-.2-.2-.3-.3-.6-.5-1-.1-.2-.1-.1-.1-.3-.6-1.5-.8-3.5-.8-5.6 0-2.8 1-5.1 2.7-6.9-.3-.6-1.1-3.3.3-6.8 0 0 2.1-.7 7.1 2.6 2-.5 4.3-.8 6.4-.8 2 0 4 .3 5.8.7 3.4-2.3 5.5-2.6 6.3-2.6.4 0 .5.1.5.1 1.2 3 .7 5.3.5 6.3 1.8 1.8 3 4.3 3 7.3 0 2.3-.1 4.2-.4 5.2z"/><path fill="#FFF" d="M34 22.6c-.9-.9-2.1-1.2-3.6-1.2-1.6 0-3.3.3-5.1.3-3.7 0-6.8-1-8.7.9-1.1 1.2-1.8 2.6-1.8 4.2 0 6.5 4.8 7.5 10.6 7.5S36 34.1 36 26.8c-.2-1.5-.8-3-2-4.2zm-14.4 8.3c-1.2 0-2.2-1.6-2.2-3.7 0-2 1-3.7 2.2-3.7 1.2 0 2.2 1.6 2.2 3.7 0 2-1 3.7-2.2 3.7zm11.7 0c-1.2 0-2.2-1.6-2.2-3.7 0-2 1-3.7 2.2-3.7 1.2 0 2.2 1.6 2.2 3.7 0 2-.9 3.7-2.2 3.7z"/></svg>