<svg xmlns="http://www.w3.org/2000/svg" viewBox="0 0 100 24"><path d="M8.4 15.3l2.7-10.9h5.7l-5.7 17.4H5.7L0 4.3h5.7l2.7 11zM28 21.7c-.2-.4-.4-.9-.5-1.6-1 1.3-2.4 1.9-4.2 1.9-1.6 0-3-.5-4.2-1.5-1.1-1-1.7-2.2-1.7-3.7 0-1.9.7-3.3 2.1-4.3s3.4-1.4 6.1-1.4h1.7v-.9c0-1.6-.7-2.4-2.1-2.4-1.3 0-1.9.6-1.9 1.9h-5.4c0-1.7.7-3 2.1-4.1 1.4-1 3.3-1.6 5.5-1.6s4 .5 5.2 1.6 1.9 2.6 2 4.4v7.7c0 1.6.3 2.8.7 3.7v.3H28zm-3.3-3.5c.7 0 1.2-.1 1.7-.4.4-.3.8-.6 1-1V14h-1.6c-1.9 0-2.8.8-2.8 2.5 0 .5.2.9.5 1.2.2.3.6.5 1.2.5zm14.2 5.5h-5.2l8-23.7h5.2l-8 23.7zM54.3 22c-2.7 0-4.8-.8-6.5-2.4s-2.5-3.7-2.5-6.2V13c0-1.8.3-3.3 1-4.7.7-1.4 1.7-2.4 2.9-3.2C50.5 4.4 52 4 53.7 4c2.4 0 4.4.8 5.8 2.3 1.4 1.5 2.1 3.6 2.1 6.3v2.1H50.9c.2 1 .6 1.7 1.3 2.3.7.6 1.5.8 2.5.8 1.7 0 3.1-.6 4-1.8l2.5 2.9c-.7.9-1.6 1.7-2.9 2.2-1.3.6-2.6.9-4 .9zm-.6-13.8c-1.6 0-2.5 1-2.8 3.1h5.5v-.4c0-.9-.2-1.5-.7-2-.5-.5-1.2-.7-2-.7zm13.4 8.2c.9 0 1.6.3 2.1.8.6.5.9 1.2.9 2s-.3 1.4-.9 2c-.6.5-1.3.8-2.1.8-.9 0-1.6-.3-2.1-.8-.6-.5-.8-1.2-.8-1.9s.3-1.4.8-1.9c.5-.7 1.3-1 2.1-1zm17.1-7.2l-1.8-.1c-1.7 0-2.8.5-3.3 1.6v11h-5.4V4.3h5.1l.2 2.3c.9-1.7 2.2-2.6 3.8-2.6.6 0 1.1.1 1.5.2l-.1 5zm11.3 12.5c-.2-.4-.4-.9-.5-1.6-1 1.3-2.4 1.9-4.2 1.9-1.6 0-3-.5-4.2-1.5-1.1-1-1.7-2.2-1.7-3.7 0-1.9.7-3.3 2.1-4.3s3.4-1.4 6.1-1.4h1.7v-.9c0-1.6-.7-2.4-2.1-2.4-1.3 0-1.9.6-1.9 1.9h-5.4c0-1.7.7-3 2.1-4.1C88.9 4.6 90.8 4 93 4s4 .5 5.2 1.6c1.3 1.1 1.8 2.1 1.8 4v12.1h-4.5zm-3.4-3.5c.7 0 1.2-.1 1.7-.4.4-.3.8-.6 1-1V14h-1.6c-1.9 0-2.8.8-2.8 2.5 0 .5.2.9.5 1.2.3.3.7.5 1.2.5z" fill="#FB5A00"/></svg>